{
	"asset":{
		"generator":"Khronos glTF Blender I/O v4.0.44",
		"version":"2.0"
	},
	"scene":0,
	"scenes":[
		{
			"name":"Scene",
			"nodes":[
				0,
				1,
				2
			]
		}
	],
	"nodes":[
		{
			"mesh":0,
			"name":"Cube"
		},
		{
			"mesh":1,
			"name":"Play",
			"translation":[
				-0.07169604301452637,
				0.07152293622493744,
				0.10363137722015381
			]
		},
		{
			"mesh":2,
			"name":"Screen"
		}
	],
	"materials":[
		{
			"doubleSided":true,
			"emissiveFactor":[
				0.015352483838796616,
				0.0050768377259373665,
				0.06270645558834076
			],
			"name":"Material",
			"pbrMetallicRoughness":{
				"baseColorFactor":[
					0,
					0,
					0,
					1
				]
			}
		},
		{
			"doubleSided":true,
			"emissiveFactor":[
				0.014445271342992783,
				0.5646869540214539,
				0.7680957317352295
			],
			"name":"BloomShine",
			"pbrMetallicRoughness":{
				"baseColorFactor":[
					0,
					0,
					0,
					1
				]
			}
		},
		{
			"doubleSided":true,
			"name":"Material.001",
			"pbrMetallicRoughness":{
				"baseColorFactor":[
					0,
					0,
					0,
					1
				],
				"metallicFactor":0,
				"roughnessFactor":0.5
			}
		}
	],
	"meshes":[
		{
			"name":"Cube.002",
			"primitives":[
				{
					"attributes":{
						"POSITION":0,
						"NORMAL":1,
						"TEXCOORD_0":2
					},
					"indices":3,
					"material":0
				}
			]
		},
		{
			"name":"Cube.009",
			"primitives":[
				{
					"attributes":{
						"POSITION":4,
						"NORMAL":5,
						"TEXCOORD_0":6
					},
					"indices":7,
					"material":1
				}
			]
		},
		{
			"name":"Cube.003",
			"primitives":[
				{
					"attributes":{
						"POSITION":8,
						"NORMAL":9,
						"TEXCOORD_0":10
					},
					"indices":11,
					"material":2
				}
			]
		}
	],
	"accessors":[
		{
			"bufferView":0,
			"componentType":5126,
			"count":100,
			"max":[
				1.962766170501709,
				1.007195234298706,
				1
			],
			"min":[
				-1.962766170501709,
				-1.007195234298706,
				-1
			],
			"type":"VEC3"
		},
		{
			"bufferView":1,
			"componentType":5126,
			"count":100,
			"type":"VEC3"
		},
		{
			"bufferView":2,
			"componentType":5126,
			"count":100,
			"type":"VEC2"
		},
		{
			"bufferView":3,
			"componentType":5123,
			"count":150,
			"type":"SCALAR"
		},
		{
			"bufferView":4,
			"componentType":5126,
			"count":264,
			"max":[
				0.3901962637901306,
				0.4943087100982666,
				1.0489407777786255
			],
			"min":[
				-0.2504909634590149,
				-0.5649241805076599,
				0.8689079284667969
			],
			"type":"VEC3"
		},
		{
			"bufferView":5,
			"componentType":5126,
			"count":264,
			"type":"VEC3"
		},
		{
			"bufferView":6,
			"componentType":5126,
			"count":264,
			"type":"VEC2"
		},
		{
			"bufferView":7,
			"componentType":5123,
			"count":762,
			"type":"SCALAR"
		},
		{
			"bufferView":8,
			"componentType":5126,
			"count":4,
			"max":[
				1.8152800798416138,
				0.8473863005638123,
				0.8689079284667969
			],
			"min":[
				-1.8152800798416138,
				-0.8473863005638123,
				0.8689079284667969
			],
			"type":"VEC3"
		},
		{
			"bufferView":9,
			"componentType":5126,
			"count":4,
			"type":"VEC3"
		},
		{
			"bufferView":10,
			"componentType":5126,
			"count":4,
			"type":"VEC2"
		},
		{
			"bufferView":11,
			"componentType":5123,
			"count":6,
			"type":"SCALAR"
		}
	],
	"bufferViews":[
		{
			"buffer":0,
			"byteLength":1200,
			"byteOffset":0,
			"target":34962
		},
		{
			"buffer":0,
			"byteLength":1200,
			"byteOffset":1200,
			"target":34962
		},
		{
			"buffer":0,
			"byteLength":800,
			"byteOffset":2400,
			"target":34962
		},
		{
			"buffer":0,
			"byteLength":300,
			"byteOffset":3200,
			"target":34963
		},
		{
			"buffer":0,
			"byteLength":3168,
			"byteOffset":3500,
			"target":34962
		},
		{
			"buffer":0,
			"byteLength":3168,
			"byteOffset":6668,
			"target":34962
		},
		{
			"buffer":0,
			"byteLength":2112,
			"byteOffset":9836,
			"target":34962
		},
		{
			"buffer":0,
			"byteLength":1524,
			"byteOffset":11948,
			"target":34963
		},
		{
			"buffer":0,
			"byteLength":48,
			"byteOffset":13472,
			"target":34962
		},
		{
			"buffer":0,
			"byteLength":48,
			"byteOffset":13520,
			"target":34962
		},
		{
			"buffer":0,
			"byteLength":32,
			"byteOffset":13568,
			"target":34962
		},
		{
			"buffer":0,
			"byteLength":12,
			"byteOffset":13600,
			"target":34963
		}
	],
	"buffers":[
		{
			"byteLength":13612,
			"uri":"play.bin"
		}
	]
}
