{
	"asset":{
		"generator":"Khronos glTF Blender I/O v4.0.44",
		"version":"2.0"
	},
	"scene":0,
	"scenes":[
		{
			"name":"Scene",
			"nodes":[
				0,
				1,
				2,
				3
			]
		}
	],
	"nodes":[
		{
			"mesh":0,
			"name":"Cube"
		},
		{
			"mesh":1,
			"name":"Screen"
		},
		{
			"mesh":2,
			"name":"Eyes"
		},
		{
			"mesh":3,
			"name":"Mouth"
		}
	],
	"materials":[
		{
			"doubleSided":true,
			"name":"Material.007",
			"pbrMetallicRoughness":{}
		},
		{
			"doubleSided":true,
			"name":"Material.014",
			"pbrMetallicRoughness":{}
		},
		{
			"doubleSided":true,
			"emissiveFactor":[
				0.014445271342992783,
				0.5646869540214539,
				0.7680957317352295
			],
			"name":"BloomShine",
			"pbrMetallicRoughness":{
				"baseColorFactor":[
					0,
					0,
					0,
					1
				]
			}
		},
		{
			"doubleSided":true,
			"emissiveFactor":[
				0.014445271342992783,
				0.5646869540214539,
				0.7680957317352295
			],
			"name":"Material.011",
			"pbrMetallicRoughness":{
				"baseColorFactor":[
					0,
					0,
					0,
					1
				]
			}
		}
	],
	"meshes":[
		{
			"name":"Cube.002",
			"primitives":[
				{
					"attributes":{
						"POSITION":0,
						"NORMAL":1,
						"TEXCOORD_0":2
					},
					"indices":3,
					"material":0
				}
			]
		},
		{
			"name":"Cube.008",
			"primitives":[
				{
					"attributes":{
						"POSITION":4,
						"NORMAL":5,
						"TEXCOORD_0":6
					},
					"indices":7,
					"material":1
				}
			]
		},
		{
			"name":"Cube.006",
			"primitives":[
				{
					"attributes":{
						"POSITION":8,
						"NORMAL":9,
						"TEXCOORD_0":10
					},
					"indices":11,
					"material":2
				}
			]
		},
		{
			"name":"Cube.007",
			"primitives":[
				{
					"attributes":{
						"POSITION":12,
						"NORMAL":13,
						"TEXCOORD_0":14
					},
					"indices":15,
					"material":3
				}
			]
		}
	],
	"accessors":[
		{
			"bufferView":0,
			"componentType":5126,
			"count":100,
			"max":[
				1.962766170501709,
				1.007195234298706,
				1
			],
			"min":[
				-1.962766170501709,
				-1.007195234298706,
				-1
			],
			"type":"VEC3"
		},
		{
			"bufferView":1,
			"componentType":5126,
			"count":100,
			"type":"VEC3"
		},
		{
			"bufferView":2,
			"componentType":5126,
			"count":100,
			"type":"VEC2"
		},
		{
			"bufferView":3,
			"componentType":5123,
			"count":150,
			"type":"SCALAR"
		},
		{
			"bufferView":4,
			"componentType":5126,
			"count":1394,
			"max":[
				1.8152800798416138,
				0.8473863005638123,
				0.8689079284667969
			],
			"min":[
				-1.8152800798416138,
				-0.8473863005638123,
				0.8689079284667969
			],
			"type":"VEC3"
		},
		{
			"bufferView":5,
			"componentType":5126,
			"count":1394,
			"type":"VEC3"
		},
		{
			"bufferView":6,
			"componentType":5126,
			"count":1394,
			"type":"VEC2"
		},
		{
			"bufferView":7,
			"componentType":5123,
			"count":7452,
			"type":"SCALAR"
		},
		{
			"bufferView":8,
			"componentType":5126,
			"count":488,
			"max":[
				1.5305300951004028,
				0.6426013112068176,
				0.9837978482246399
			],
			"min":[
				-1.530530333518982,
				0.2189081758260727,
				0.8689079284667969
			],
			"type":"VEC3"
		},
		{
			"bufferView":9,
			"componentType":5126,
			"count":488,
			"type":"VEC3"
		},
		{
			"bufferView":10,
			"componentType":5126,
			"count":488,
			"type":"VEC2"
		},
		{
			"bufferView":11,
			"componentType":5123,
			"count":792,
			"type":"SCALAR"
		},
		{
			"bufferView":12,
			"componentType":5126,
			"count":280,
			"max":[
				0.6762804985046387,
				-0.3460160493850708,
				0.9837978482246399
			],
			"min":[
				-0.6762809753417969,
				-0.6990936994552612,
				0.8689079284667969
			],
			"type":"VEC3"
		},
		{
			"bufferView":13,
			"componentType":5126,
			"count":280,
			"type":"VEC3"
		},
		{
			"bufferView":14,
			"componentType":5126,
			"count":280,
			"type":"VEC2"
		},
		{
			"bufferView":15,
			"componentType":5123,
			"count":564,
			"type":"SCALAR"
		}
	],
	"bufferViews":[
		{
			"buffer":0,
			"byteLength":1200,
			"byteOffset":0,
			"target":34962
		},
		{
			"buffer":0,
			"byteLength":1200,
			"byteOffset":1200,
			"target":34962
		},
		{
			"buffer":0,
			"byteLength":800,
			"byteOffset":2400,
			"target":34962
		},
		{
			"buffer":0,
			"byteLength":300,
			"byteOffset":3200,
			"target":34963
		},
		{
			"buffer":0,
			"byteLength":16728,
			"byteOffset":3500,
			"target":34962
		},
		{
			"buffer":0,
			"byteLength":16728,
			"byteOffset":20228,
			"target":34962
		},
		{
			"buffer":0,
			"byteLength":11152,
			"byteOffset":36956,
			"target":34962
		},
		{
			"buffer":0,
			"byteLength":14904,
			"byteOffset":48108,
			"target":34963
		},
		{
			"buffer":0,
			"byteLength":5856,
			"byteOffset":63012,
			"target":34962
		},
		{
			"buffer":0,
			"byteLength":5856,
			"byteOffset":68868,
			"target":34962
		},
		{
			"buffer":0,
			"byteLength":3904,
			"byteOffset":74724,
			"target":34962
		},
		{
			"buffer":0,
			"byteLength":1584,
			"byteOffset":78628,
			"target":34963
		},
		{
			"buffer":0,
			"byteLength":3360,
			"byteOffset":80212,
			"target":34962
		},
		{
			"buffer":0,
			"byteLength":3360,
			"byteOffset":83572,
			"target":34962
		},
		{
			"buffer":0,
			"byteLength":2240,
			"byteOffset":86932,
			"target":34962
		},
		{
			"buffer":0,
			"byteLength":1128,
			"byteOffset":89172,
			"target":34963
		}
	],
	"buffers":[
		{
			"byteLength":90300,
			"uri":"smiley.bin"
		}
	]
}
